<svg width="56" height="62" viewBox="0 0 56 62" fill="none" xmlns="http://www.w3.org/2000/svg">
<path d="M0 28C0 12.536 12.536 0 28 0C43.464 0 56 12.536 56 28V34C56 49.464 43.464 62 28 62C12.536 62 0 49.464 0 34V28Z" fill="#D4AF37"/>
<path d="M18.2312 33.1054L26.7016 41.0132C27.0531 41.3414 27.5172 41.5242 28 41.5242C28.4828 41.5242 28.9469 41.3414 29.2984 41.0132L37.7687 33.1054C39.1937 31.7789 40 29.9179 40 27.9726V27.7007C40 24.4242 37.6328 21.6304 34.4031 21.0914C32.2656 20.7351 30.0906 21.4336 28.5625 22.9617L28 23.5242L27.4375 22.9617C25.9094 21.4336 23.7344 20.7351 21.5969 21.0914C18.3672 21.6304 16 24.4242 16 27.7007V27.9726C16 29.9179 16.8062 31.7789 18.2312 33.1054Z" fill="white"/>
</svg>
