<svg width="14" height="14" viewBox="0 0 14 14" fill="none" xmlns="http://www.w3.org/2000/svg">
<path d="M7.00313 3.41172C5.01563 3.41172 3.4125 5.01484 3.4125 7.00234C3.4125 8.98984 5.01563 10.593 7.00313 10.593C8.99063 10.593 10.5938 8.98984 10.5938 7.00234C10.5938 5.01484 8.99063 3.41172 7.00313 3.41172ZM7.00313 9.33672C5.71875 9.33672 4.66875 8.28984 4.66875 7.00234C4.66875 5.71484 5.71563 4.66797 7.00313 4.66797C8.29063 4.66797 9.3375 5.71484 9.3375 7.00234C9.3375 8.28984 8.2875 9.33672 7.00313 9.33672ZM11.5781 3.26484C11.5781 3.73047 11.2031 4.10234 10.7406 4.10234C10.275 4.10234 9.90313 3.72734 9.90313 3.26484C9.90313 2.80234 10.2781 2.42734 10.7406 2.42734C11.2031 2.42734 11.5781 2.80234 11.5781 3.26484ZM13.9563 4.11484C13.9031 2.99297 13.6469 1.99922 12.825 1.18047C12.0063 0.361719 11.0125 0.105469 9.89063 0.0492187C8.73438 -0.0164062 5.26875 -0.0164062 4.1125 0.0492187C2.99375 0.102344 2 0.358594 1.17813 1.17734C0.356252 1.99609 0.103127 2.98984 0.0468765 4.11172C-0.0187485 5.26797 -0.0187485 8.73359 0.0468765 9.88984C0.100002 11.0117 0.356252 12.0055 1.17813 12.8242C2 13.643 2.99063 13.8992 4.1125 13.9555C5.26875 14.0211 8.73438 14.0211 9.89063 13.9555C11.0125 13.9023 12.0063 13.6461 12.825 12.8242C13.6438 12.0055 13.9 11.0117 13.9563 9.88984C14.0219 8.73359 14.0219 5.27109 13.9563 4.11484ZM12.4625 11.1305C12.2188 11.743 11.7469 12.2148 11.1313 12.4617C10.2094 12.8273 8.02188 12.743 7.00313 12.743C5.98438 12.743 3.79375 12.8242 2.875 12.4617C2.2625 12.218 1.79063 11.7461 1.54375 11.1305C1.17813 10.2086 1.2625 8.02109 1.2625 7.00234C1.2625 5.98359 1.18125 3.79297 1.54375 2.87422C1.7875 2.26172 2.25938 1.78984 2.875 1.54297C3.79688 1.17734 5.98438 1.26172 7.00313 1.26172C8.02188 1.26172 10.2125 1.18047 11.1313 1.54297C11.7438 1.78672 12.2156 2.25859 12.4625 2.87422C12.8281 3.79609 12.7438 5.98359 12.7438 7.00234C12.7438 8.02109 12.8281 10.2117 12.4625 11.1305Z" fill="white"/>
</svg>
