<svg width="18" height="24" viewBox="0 0 18 24" fill="none" xmlns="http://www.w3.org/2000/svg">
<path d="M5.62377 3.375C5.62377 2.93179 5.71107 2.49292 5.88068 2.08344C6.05029 1.67397 6.29889 1.30191 6.61228 0.988515C6.92568 0.675117 7.29774 0.426516 7.70721 0.256907C8.11669 0.087297 8.55556 0 8.99877 0C9.44198 0 9.88085 0.087297 10.2903 0.256907C10.6998 0.426516 11.0719 0.675117 11.3853 0.988515C11.6987 1.30191 11.9473 1.67397 12.1169 2.08344C12.2865 2.49292 12.3738 2.93179 12.3738 3.375C12.3738 3.81821 12.2865 4.25708 12.1169 4.66656C11.9473 5.07603 11.6987 5.44809 11.3853 5.76149C11.0719 6.07488 10.6998 6.32348 10.2903 6.49309C9.88085 6.6627 9.44198 6.75 8.99877 6.75C8.55556 6.75 8.11669 6.6627 7.70721 6.49309C7.29774 6.32348 6.92568 6.07488 6.61228 5.76149C6.29889 5.44809 6.05029 5.07603 5.88068 4.66656C5.71107 4.25708 5.62377 3.81821 5.62377 3.375ZM0.359707 6.02344C0.969082 5.18438 2.14096 5.00156 2.98002 5.61094L4.67689 6.84375C5.93314 7.75781 7.44721 8.25 8.99877 8.25C10.5503 8.25 12.0644 7.75781 13.3206 6.84375L15.0175 5.60625C15.8566 4.99688 17.0285 5.18438 17.6378 6.01875C18.2472 6.85313 18.0597 8.02969 17.2253 8.63906L15.5285 9.87656C14.891 10.3406 14.2113 10.7297 13.4988 11.0484V12.75H4.49877V11.0484C3.78627 10.7344 3.10658 10.3406 2.46908 9.87656L0.772207 8.63906C-0.0668555 8.02969 -0.249668 6.85781 0.359707 6.01875V6.02344ZM4.56908 14.6859L7.40971 17.1703L6.19096 18.9141L7.33002 20.0531C8.06127 20.7844 8.06127 21.9703 7.33002 22.7063C6.59877 23.4422 5.41283 23.4375 4.67689 22.7063L2.42689 20.4563C1.78002 19.8094 1.69096 18.7969 2.21127 18.0516L4.56439 14.6859H4.56908ZM10.5925 17.1703L13.4331 14.6859L15.7863 18.0516C16.3066 18.7969 16.2175 19.8094 15.5753 20.4516L13.3253 22.7016C12.5941 23.4328 11.4081 23.4328 10.6722 22.7016C9.93627 21.9703 9.94096 20.7844 10.6722 20.0484L11.8113 18.9094L10.5925 17.1656V17.1703Z" fill="white"/>
</svg>
