<svg width="16" height="16" viewBox="0 0 16 16" fill="none" xmlns="http://www.w3.org/2000/svg">
<path d="M13.391 2.28867C11.918 0.812109 9.95625 0 7.87148 0C3.56836 0 0.0667969 3.50156 0.0667969 7.80469C0.0667969 9.1793 0.425391 10.5223 1.10742 11.707L0 15.75L4.13789 14.6637C5.27695 15.2859 6.56016 15.6129 7.86797 15.6129H7.87148C12.1711 15.6129 15.75 12.1113 15.75 7.8082C15.75 5.72344 14.8641 3.76523 13.391 2.28867ZM7.87148 14.298C6.7043 14.298 5.56172 13.9852 4.5668 13.3945L4.33125 13.2539L1.87734 13.8973L2.53125 11.5031L2.37656 11.257C1.72617 10.2234 1.38516 9.03164 1.38516 7.80469C1.38516 4.2293 4.29609 1.31836 7.875 1.31836C9.6082 1.31836 11.2359 1.99336 12.4594 3.22031C13.6828 4.44727 14.4352 6.075 14.4316 7.8082C14.4316 11.3871 11.4469 14.298 7.87148 14.298ZM11.4293 9.43945C11.2359 9.34102 10.2762 8.86992 10.0969 8.80664C9.91758 8.73984 9.7875 8.7082 9.65742 8.90508C9.52734 9.10195 9.15469 9.53789 9.03867 9.67148C8.92617 9.80156 8.81016 9.81914 8.6168 9.7207C7.4707 9.14766 6.71836 8.69766 5.9625 7.40039C5.76211 7.05586 6.16289 7.08047 6.53555 6.33516C6.59883 6.20508 6.56719 6.09258 6.51797 5.99414C6.46875 5.8957 6.07852 4.93594 5.9168 4.5457C5.75859 4.16602 5.59688 4.21875 5.47734 4.21172C5.36484 4.20469 5.23477 4.20469 5.10469 4.20469C4.97461 4.20469 4.76367 4.25391 4.58437 4.44727C4.40508 4.64414 3.90234 5.11523 3.90234 6.075C3.90234 7.03477 4.60195 7.96289 4.69688 8.09297C4.79531 8.22305 6.07148 10.1918 8.02969 11.0391C9.26719 11.5734 9.75234 11.6191 10.3711 11.5277C10.7473 11.4715 11.5242 11.0566 11.6859 10.5996C11.8477 10.1426 11.8477 9.75234 11.7984 9.67148C11.7527 9.58359 11.6227 9.53438 11.4293 9.43945Z" fill="#22C55E"/>
</svg>
