<svg width="24" height="21" viewBox="0 0 24 21" fill="none" xmlns="http://www.w3.org/2000/svg">
<path d="M10.7016 20.0132L2.23125 12.1054C2.03437 11.9226 1.84688 11.7257 1.67344 11.5242H5.75156C6.81094 11.5242 7.76719 10.8867 8.175 9.90699L8.66719 8.72574L10.9781 13.8586C11.1562 14.257 11.5453 14.5148 11.9813 14.5195C12.4172 14.5242 12.8156 14.2851 13.0125 13.8961L15 9.91636L15.0797 10.0757C15.525 10.9664 16.4344 11.5289 17.4281 11.5289H22.3266C22.1531 11.7304 21.9656 11.9273 21.7687 12.1101L13.2984 20.0132C12.9469 20.3414 12.4828 20.5242 12 20.5242C11.5172 20.5242 11.0531 20.3414 10.7016 20.0132ZM23.6109 9.27418H17.4234C17.2828 9.27418 17.1516 9.19449 17.0859 9.06793L15.9984 6.89761C15.8062 6.51793 15.4172 6.27418 14.9906 6.27418C14.5641 6.27418 14.175 6.51324 13.9828 6.89761L12.0422 10.7789L9.65156 5.4398C9.46875 5.03199 9.05625 4.76949 8.61094 4.77886C8.16562 4.78824 7.7625 5.05543 7.58906 5.47261L6.09844 9.04918C6.04219 9.1898 5.90156 9.27886 5.75156 9.27886H0.75C0.628125 9.27886 0.515625 9.29761 0.407812 9.33043C0.140625 8.58043 0 7.78355 0 6.97261V6.70074C0 3.42418 2.36719 0.630427 5.59688 0.0913643C7.73438 -0.264886 9.90938 0.433552 11.4375 1.96168L12 2.52418L12.5625 1.96168C14.0906 0.433552 16.2656 -0.264886 18.4031 0.0913643C21.6328 0.630427 24 3.42418 24 6.70074V6.97261C24 7.7648 23.8688 8.54293 23.6109 9.27418Z" fill="white"/>
</svg>
