<svg width="17" height="24" viewBox="0 0 17 24" fill="none" xmlns="http://www.w3.org/2000/svg">
<path d="M3 8.25C3 7.56056 3.1358 6.87787 3.39963 6.24091C3.66347 5.60395 4.05018 5.0252 4.53769 4.53769C5.0252 4.05018 5.60395 3.66347 6.24091 3.39963C6.87787 3.1358 7.56056 3 8.25 3C8.93944 3 9.62213 3.1358 10.2591 3.39963C10.896 3.66347 11.4748 4.05018 11.9623 4.53769C12.4498 5.0252 12.8365 5.60395 13.1004 6.24091C13.3642 6.87787 13.5 7.56056 13.5 8.25C13.5 8.93944 13.3642 9.62213 13.1004 10.2591C12.8365 10.896 12.4498 11.4748 11.9623 11.9623C11.4748 12.4498 10.896 12.8365 10.2591 13.1004C9.62213 13.3642 8.93944 13.5 8.25 13.5C7.56056 13.5 6.87787 13.3642 6.24091 13.1004C5.60395 12.8365 5.0252 12.4498 4.53769 11.9623C4.05018 11.4748 3.66347 10.896 3.39963 10.2591C3.1358 9.62213 3 8.93944 3 8.25ZM9.75 16.3641C13.5891 15.6609 16.5 12.2953 16.5 8.25C16.5 3.69375 12.8062 0 8.25 0C3.69375 0 0 3.69375 0 8.25C0 12.2953 2.91094 15.6609 6.75 16.3641V18H5.25C4.42031 18 3.75 18.6703 3.75 19.5C3.75 20.3297 4.42031 21 5.25 21H6.75V22.5C6.75 23.3297 7.42031 24 8.25 24C9.07969 24 9.75 23.3297 9.75 22.5V21H11.25C12.0797 21 12.75 20.3297 12.75 19.5C12.75 18.6703 12.0797 18 11.25 18H9.75V16.3641Z" fill="white"/>
</svg>
