<svg width="30" height="24" viewBox="0 0 30 24" fill="none" xmlns="http://www.w3.org/2000/svg">
<path d="M9.74999 16.5C15.1359 16.5 19.5 12.8062 19.5 8.25C19.5 3.69375 15.1359 0 9.74999 0C4.36406 0 -5.77804e-06 3.69375 -5.77804e-06 8.25C-5.77804e-06 10.0594 0.689057 11.7328 1.85624 13.0969C1.69218 13.5375 1.44843 13.9266 1.19062 14.2547C0.965619 14.5453 0.735932 14.7703 0.567182 14.925C0.482807 15 0.412494 15.0609 0.365619 15.0984C0.342182 15.1172 0.323432 15.1312 0.314057 15.1359L0.304682 15.1453C0.0468692 15.3375 -0.0656308 15.675 0.0374942 15.9797C0.140619 16.2844 0.426557 16.5 0.749994 16.5C1.77187 16.5 2.80312 16.2375 3.66093 15.9141C4.09218 15.75 4.49531 15.5672 4.84687 15.3797C6.28593 16.0922 7.95937 16.5 9.74999 16.5ZM21 8.25C21 13.5141 16.3547 17.4797 10.8516 17.9531C11.9906 21.4406 15.7687 24 20.25 24C22.0406 24 23.7141 23.5922 25.1578 22.8797C25.5094 23.0672 25.9078 23.25 26.3391 23.4141C27.1969 23.7375 28.2281 24 29.25 24C29.5734 24 29.8641 23.7891 29.9625 23.4797C30.0609 23.1703 29.9531 22.8328 29.6906 22.6406L29.6812 22.6312C29.6719 22.6219 29.6531 22.6125 29.6297 22.5938C29.5828 22.5562 29.5125 22.5 29.4281 22.4203C29.2594 22.2656 29.0297 22.0406 28.8047 21.75C28.5469 21.4219 28.3031 21.0281 28.1391 20.5922C29.3062 19.2328 29.9953 17.5594 29.9953 15.7453C29.9953 11.3953 26.0156 7.82812 20.9672 7.51875C20.9859 7.75781 20.9953 8.00156 20.9953 8.24531L21 8.25Z" fill="white"/>
</svg>
